<?xml version="1.0" standalone="no"?>
<!DOCTYPE svg PUBLIC "-//W3C//DTD SVG 20010904//EN"
 "http://www.w3.org/TR/2001/REC-SVG-20010904/DTD/svg10.dtd">
<svg version="1.0" xmlns="http://www.w3.org/2000/svg"
 width="1080.000000pt" height="1080.000000pt" viewBox="0 0 1080.000000 1080.000000"
 preserveAspectRatio="xMidYMid meet">

<g transform="translate(0.000000,1080.000000) scale(0.100000,-0.100000)"
fill="#1890ff" stroke="none">
<path d="M2474 7665 c-16 -7 -35 -24 -42 -39 -9 -21 -12 -512 -12 -2231 l0
-2203 26 -31 c33 -40 79 -42 118 -6 l26 24 0 2218 c0 2431 5 2249 -58 2271
-20 7 -37 6 -58 -3z"/>
<path d="M1903 7146 l-28 -24 0 -1722 0 -1722 28 -24 c50 -43 119 -21 136 44
7 25 11 582 11 1710 0 1794 2 1724 -48 1751 -33 18 -69 13 -99 -13z"/>
<path d="M3012 7163 c-7 -3 -19 -18 -27 -33 -13 -25 -15 -248 -15 -1729 0
-1242 3 -1707 11 -1725 27 -59 127 -55 148 6 8 22 11 538 11 1725 0 1807 2
1739 -45 1757 -19 7 -64 7 -83 -1z"/>
<path d="M1378 6664 c-15 -8 -32 -23 -38 -34 -7 -12 -10 -423 -10 -1235 l0
-1216 25 -24 c34 -35 78 -33 116 4 l29 29 0 1207 c0 1327 4 1251 -61 1274 -18
6 -32 11 -33 11 -1 -1 -13 -7 -28 -16z"/>
<path d="M3575 6671 c-11 -5 -28 -17 -38 -28 -16 -19 -17 -88 -17 -1244 l0
-1224 25 -23 c34 -29 77 -28 112 2 l28 24 3 1199 c2 856 0 1209 -8 1236 -9 30
-19 42 -45 53 -19 8 -36 14 -37 13 -2 0 -12 -4 -23 -8z"/>
<path d="M7550 5400 l0 -930 79 0 80 0 3 408 c3 402 4 408 28 477 41 116 133
212 247 255 114 44 308 38 406 -12 48 -24 119 -94 143 -139 44 -85 46 -116 51
-561 l5 -428 80 0 80 0 -5 453 c-5 489 -5 497 -63 615 -85 174 -265 262 -512
249 -164 -8 -287 -60 -390 -164 -29 -30 -57 -51 -62 -48 -6 4 -10 144 -10 381
l0 374 -80 0 -80 0 0 -930z"/>
<path d="M4995 6213 c-246 -52 -401 -183 -440 -372 -18 -85 -7 -177 31 -271
21 -52 24 -75 24 -186 l0 -127 -36 -40 c-20 -22 -50 -69 -68 -106 -29 -61 -31
-74 -31 -171 0 -93 3 -112 27 -163 38 -81 79 -130 152 -180 129 -91 252 -126
473 -134 286 -11 534 50 683 168 l50 39 -32 64 -31 64 -46 -36 c-150 -115
-426 -177 -674 -152 -217 22 -341 85 -402 205 -25 49 -29 70 -29 139 -1 100
21 151 76 180 21 10 42 32 49 48 13 32 26 40 107 71 52 19 85 21 362 26 l305
6 3 73 3 72 -233 1 c-128 0 -253 3 -278 5 -87 10 -214 64 -246 105 -6 8 -14
32 -17 53 -4 23 -18 51 -33 67 -25 26 -26 32 -22 101 6 87 28 138 84 195 92
92 213 128 429 127 172 -1 272 -20 413 -81 46 -19 84 -34 86 -32 4 5 46 118
46 125 0 9 -142 71 -200 87 -166 48 -439 62 -585 30z m-195 -854 c0 -5 -4 -9
-10 -9 -5 0 -10 7 -10 16 0 8 5 12 10 9 6 -3 10 -10 10 -16z"/>
<path d="M832 6164 c-19 -7 -33 -24 -41 -44 -15 -44 -16 -1396 -1 -1436 22
-58 87 -72 134 -29 l26 24 0 719 c0 701 0 720 -20 744 -24 31 -59 39 -98 22z"/>
<path d="M4111 6164 c-21 -9 -33 -23 -41 -51 -8 -27 -10 -245 -8 -736 l3 -699
28 -24 c36 -31 77 -31 111 1 l26 24 0 719 c0 701 0 720 -20 744 -24 31 -59 39
-99 22z"/>
<path d="M6535 5775 c-313 -69 -515 -322 -515 -645 0 -167 45 -304 141 -422
125 -156 286 -234 504 -245 123 -6 212 11 316 61 74 35 173 116 204 167 l16
27 -60 36 -60 37 -48 -49 c-94 -94 -193 -132 -343 -132 -150 0 -261 44 -357
141 -102 103 -143 212 -143 378 0 144 34 248 109 340 177 218 533 240 727 46
l56 -56 48 31 c75 48 76 51 28 104 -80 92 -189 155 -313 182 -76 17 -232 16
-310 -1z"/>
<path d="M9612 5770 c-146 -39 -260 -110 -345 -215 -97 -120 -140 -251 -139
-425 0 -274 123 -485 347 -595 110 -54 182 -70 325 -69 110 0 134 3 205 28
114 39 180 80 260 161 115 115 172 254 182 445 5 97 2 128 -16 200 -32 130
-82 222 -165 305 -75 75 -137 112 -251 153 -100 35 -297 41 -403 12z m289
-134 c169 -36 287 -141 357 -318 24 -58 36 -190 25 -263 -42 -274 -231 -445
-492 -445 -140 0 -247 41 -337 127 -107 102 -154 207 -162 361 -9 176 33 296
142 404 73 74 141 112 237 132 83 19 149 19 230 2z"/>
<path d="M282 5665 c-23 -10 -34 -23 -38 -45 -4 -16 -10 -30 -15 -30 -13 0
-11 -367 1 -375 6 -3 10 -15 10 -25 0 -26 47 -60 82 -60 41 0 75 38 83 92 4
24 5 123 3 219 -3 190 -9 210 -62 229 -16 5 -29 10 -30 10 -1 -1 -16 -7 -34
-15z"/>
</g>
</svg>
